<mxfile host="app.diagrams.net" modified="2024-04-25T22:36:56.443Z" agent="Mozilla/5.0 (Windows NT 10.0; Win64; x64) AppleWebKit/537.36 (KHTML, like Gecko) Chrome/124.0.0.0 Safari/537.36" version="24.3.0" etag="Q1i3qCTmLQt41_LkG6r4" type="github">
  <diagram name="PÃ¡gina-1" id="jvUbDSnbE1fdLhawKNMB">
    <mxGraphModel>
      <root>
        <mxCell id="0" />
        <mxCell id="1" parent="0" />
      </root>
    </mxGraphModel>
  </diagram>
</mxfile>
